<svg xmlns="http://www.w3.org/2000/svg" fill="none" viewBox="0 0 140 36"><path fill="#161E2E" d="M61.885 15.362c-.447-3.231-2.933-5.106-6.158-5.106-3.8 0-6.662 2.77-6.662 7.471 0 4.695 2.827 7.472 6.662 7.472 3.46 0 5.753-2.237 6.158-5.014l-2.656-.014c-.334 1.704-1.726 2.663-3.466 2.663-2.358 0-4.048-1.769-4.048-5.107 0-3.281 1.676-5.106 4.055-5.106 1.768 0 3.153 1.001 3.459 2.741h2.656zm5.438 9.858c1.712 0 2.735-.802 3.204-1.719h.085V25h2.472v-7.301c0-2.884-2.351-3.75-4.432-3.75-2.294 0-4.056 1.023-4.624 3.011l2.4.341c.256-.746.98-1.385 2.238-1.385 1.193 0 1.846.611 1.846 1.683v.043c0 .739-.774.774-2.698.98-2.117.227-4.141.86-4.141 3.317 0 2.145 1.57 3.281 3.65 3.281zm.668-1.889c-1.072 0-1.84-.49-1.84-1.435 0-.987.86-1.399 2.01-1.562.675-.093 2.025-.263 2.358-.533v1.286c0 1.214-.98 2.244-2.528 2.244zM75.67 25h2.57v-6.413c0-1.385 1.045-2.365 2.458-2.365.433 0 .973.078 1.193.149v-2.365a6.176 6.176 0 00-.923-.071c-1.25 0-2.294.71-2.692 1.974h-.113v-1.818h-2.493V25zm13.963-10.91H87.48v-2.613h-2.571v2.614H83.36v1.989h1.549v6.065c-.015 2.052 1.477 3.061 3.409 3.004a5.169 5.169 0 001.513-.256l-.434-2.01c-.142.036-.433.1-.753.1-.646 0-1.164-.227-1.164-1.264v-5.64h2.152v-1.988zM91.782 25h2.571v-6.634c0-1.342.895-2.25 2.003-2.25 1.087 0 1.832.73 1.832 1.853V25h2.522v-6.804c0-1.229.731-2.08 1.974-2.08 1.037 0 1.861.61 1.861 1.96V25h2.578v-7.322c0-2.437-1.406-3.73-3.409-3.73-1.584 0-2.791.782-3.274 1.997h-.114c-.419-1.236-1.477-1.996-2.947-1.996-1.464 0-2.557.753-3.012 1.996h-.128V14.09h-2.457V25zm22.708.213c3.196 0 5.227-2.251 5.227-5.625 0-3.38-2.031-5.64-5.227-5.64s-5.228 2.26-5.228 5.64c0 3.374 2.032 5.625 5.228 5.625zm.014-2.06c-1.769 0-2.635-1.576-2.635-3.572s.866-3.594 2.635-3.594c1.74 0 2.606 1.598 2.606 3.594 0 1.996-.866 3.572-2.606 3.572zM121.899 25h2.571v-6.413c0-1.385 1.044-2.365 2.458-2.365.433 0 .973.078 1.193.149v-2.365a6.182 6.182 0 00-.924-.071c-1.25 0-2.294.71-2.691 1.974h-.114v-1.818h-2.493V25zm12.31.213c2.543 0 4.29-1.243 4.744-3.14l-2.4-.269c-.348.923-1.2 1.406-2.308 1.406-1.662 0-2.763-1.094-2.784-2.961h7.599v-.789c0-3.828-2.301-5.511-4.986-5.511-3.125 0-5.163 2.294-5.163 5.66 0 3.424 2.01 5.604 5.298 5.604zm-2.741-6.697c.078-1.392 1.108-2.564 2.642-2.564 1.477 0 2.471 1.08 2.486 2.564h-5.128z"/><rect width="36" height="36" fill="#161E2E" rx="18"/><path fill="#fff" fill-rule="evenodd" d="M20.637 15.645a3.682 3.682 0 100 5.207l2.025 2.024a6.545 6.545 0 110-9.256l-2.025 2.025z" clip-rule="evenodd"/></svg>
