<svg xmlns="http://www.w3.org/2000/svg" fill="none" viewBox="0 0 25 29"><path fill="#95BF47" d="M21.019 6.375c-.022-.135-.132-.225-.241-.225-.11 0-2.039-.045-2.039-.045s-1.622-1.619-1.775-1.776c-.153-.158-.482-.113-.592-.068 0 0-.307.09-.81.247a6.69 6.69 0 00-.395-.99c-.57-1.124-1.425-1.73-2.433-1.73-.066 0-.132 0-.22.022-.021-.045-.065-.068-.087-.113-.438-.495-1.008-.72-1.688-.697-1.315.045-2.63 1.012-3.682 2.744-.745 1.214-1.315 2.744-1.49 3.936-1.513.472-2.565.81-2.587.832-.767.247-.789.27-.876 1.012C2.038 10.086.02 25.94.02 25.94l16.746 2.97 7.255-1.845C24 27.043 21.04 6.51 21.018 6.376zm-6.29-1.597c-.395.113-.833.27-1.294.405 0-.675-.088-1.642-.394-2.451.986.202 1.468 1.35 1.687 2.046zm-2.192.698c-.877.27-1.842.584-2.806.877.263-1.057.79-2.114 1.403-2.812.24-.247.57-.54.942-.72.395.788.482 1.89.46 2.655zM10.76 1.9c.307 0 .57.067.79.202-.351.202-.702.472-1.03.832-.834.922-1.47 2.362-1.732 3.734l-2.302.72c.46-2.16 2.236-5.42 4.274-5.488z"/><path fill="#5E8E3E" d="M20.779 6.15c-.11 0-2.039-.045-2.039-.045s-1.622-1.619-1.775-1.776a.414.414 0 00-.22-.113v24.672L24 27.044S21.041 6.51 21.02 6.353a.258.258 0 00-.241-.203z"/><path fill="#fff" d="M12.712 9.974l-.833 3.238s-.942-.45-2.06-.36c-1.644.113-1.644 1.17-1.644 1.44.088 1.44 3.792 1.754 4.011 5.15.154 2.676-1.38 4.498-3.594 4.633-2.674.18-4.143-1.44-4.143-1.44l.57-2.473s1.469 1.147 2.652 1.057c.767-.045 1.052-.698 1.03-1.147-.11-1.89-3.134-1.777-3.331-4.88-.154-2.61 1.512-5.263 5.194-5.488 1.425-.113 2.148.27 2.148.27z"/></svg>
