<svg width="100%" height="100%" xmlns="http://www.w3.org/2000/svg">
  <rect width="100%" height="100%" fill="#F5F5F5" rx="8" />
  <svg xmlns="http://www.w3.org/2000/svg" fill="none" viewBox="0 0 315 159">
    <path
      fill="#1A56DB"
      d="M58.061 47.09h2.416c-.402-2.57-2.627-4.36-5.522-4.36-3.427 0-5.996 2.519-5.996 6.737 0 4.142 2.454 6.712 6.066 6.712 3.24 0 5.56-2.084 5.56-5.459v-1.572h-5.31V51h3.016c-.038 1.867-1.285 3.05-3.253 3.05-2.193 0-3.695-1.643-3.695-4.61 0-2.946 1.528-4.582 3.643-4.582 1.58 0 2.653.843 3.075 2.23zM62.777 56h2.314v-5.772c0-1.247.94-2.129 2.211-2.129.39 0 .876.07 1.074.135v-2.129a5.562 5.562 0 00-.83-.064c-1.126 0-2.065.64-2.423 1.777h-.103v-1.636h-2.243V56zm11.015.192c2.876 0 4.704-2.026 4.704-5.063 0-3.042-1.828-5.075-4.704-5.075-2.877 0-4.705 2.033-4.705 5.075 0 3.037 1.828 5.063 4.705 5.063zm.013-1.854c-1.592 0-2.372-1.419-2.372-3.215 0-1.796.78-3.234 2.372-3.234 1.566 0 2.346 1.438 2.346 3.234s-.78 3.215-2.346 3.215zM82.223 56h2.416l1.841-6.635h.134L88.455 56h2.41l2.78-9.818h-2.364l-1.7 6.865h-.097l-1.764-6.865h-2.333l-1.764 6.903h-.09l-1.725-6.903h-2.36L82.224 56zm18.941 3.682c1.803 0 2.845-.927 3.401-2.493l3.944-10.994-2.474-.013-2.269 7.415h-.102l-2.263-7.415h-2.455l3.561 10.023-.199.53c-.428 1.119-1.105 1.195-2.115.901l-.537 1.803c.313.128.875.243 1.508.243zm12.899-3.49c2.877 0 4.705-2.026 4.705-5.063 0-3.042-1.828-5.075-4.705-5.075-2.876 0-4.704 2.033-4.704 5.075 0 3.037 1.828 5.063 4.704 5.063zm.013-1.854c-1.591 0-2.371-1.419-2.371-3.215 0-1.796.78-3.234 2.371-3.234 1.566 0 2.346 1.438 2.346 3.234s-.78 3.215-2.346 3.215zm12.914-2.467c0 1.495-1.068 2.237-2.09 2.237-1.113 0-1.854-.786-1.854-2.033v-5.893h-2.314v6.251c0 2.359 1.342 3.695 3.273 3.695 1.47 0 2.505-.774 2.953-1.873h.102V56h2.244v-9.818h-2.314v5.689zM131.683 56h2.314v-5.772c0-1.247.94-2.129 2.212-2.129.39 0 .875.07 1.073.135v-2.129a5.547 5.547 0 00-.83-.064c-1.125 0-2.065.64-2.423 1.777h-.102v-1.636h-2.244V56zm19.362-7.223c-.32-1.662-1.65-2.723-3.951-2.723-2.365 0-3.976 1.163-3.969 2.979-.007 1.431.876 2.377 2.761 2.767l1.675.352c.901.198 1.323.563 1.323 1.119 0 .67-.729 1.176-1.828 1.176-1.061 0-1.751-.46-1.95-1.343l-2.256.218c.288 1.802 1.803 2.87 4.212 2.87 2.455 0 4.187-1.272 4.194-3.132-.007-1.4-.908-2.257-2.762-2.66l-1.675-.357c-.997-.224-1.393-.57-1.387-1.138-.006-.665.729-1.125 1.694-1.125 1.068 0 1.63.581 1.809 1.227l2.11-.23zm4.944 7.421c1.54 0 2.461-.722 2.883-1.547h.076V56h2.225v-6.571c0-2.595-2.116-3.375-3.989-3.375-2.065 0-3.65.92-4.161 2.71l2.16.307c.231-.671.883-1.246 2.014-1.246 1.074 0 1.662.55 1.662 1.514v.039c0 .665-.697.697-2.429.882-1.905.205-3.727.773-3.727 2.985 0 1.93 1.413 2.953 3.286 2.953zm.601-1.7c-.966 0-1.656-.441-1.656-1.291 0-.889.774-1.26 1.809-1.407.607-.083 1.822-.236 2.122-.479v1.157c0 1.093-.882 2.02-2.275 2.02zm9.223-11.589h-2.314V56h2.314V42.91zm6.726 13.283c2.289 0 3.861-1.119 4.27-2.825l-2.16-.243c-.313.83-1.08 1.265-2.078 1.265-1.495 0-2.486-.984-2.505-2.665h6.839v-.71c0-3.445-2.071-4.96-4.487-4.96-2.813 0-4.647 2.065-4.647 5.094 0 3.081 1.809 5.044 4.768 5.044zm-2.467-6.028c.07-1.253.997-2.308 2.378-2.308 1.329 0 2.224.972 2.237 2.308h-4.615zm16.551-1.387c-.32-1.662-1.649-2.723-3.951-2.723-2.365 0-3.975 1.163-3.969 2.979-.006 1.431.876 2.377 2.761 2.767l1.675.352c.901.198 1.323.563 1.323 1.119 0 .67-.729 1.176-1.828 1.176-1.061 0-1.751-.46-1.95-1.343l-2.256.218c.288 1.802 1.803 2.87 4.212 2.87 2.455 0 4.187-1.272 4.194-3.132-.007-1.4-.908-2.257-2.762-2.66l-1.674-.357c-.998-.224-1.394-.57-1.388-1.138-.006-.665.729-1.125 1.694-1.125 1.068 0 1.63.581 1.809 1.227l2.11-.23z"
    />
    <path
      fill="#171717"
      d="M195.233 56h2.416l1.841-6.635h.134L201.465 56h2.41l2.78-9.818h-2.365l-1.7 6.865h-.096l-1.764-6.865h-2.333l-1.764 6.903h-.09l-1.726-6.903h-2.358L195.233 56zm13.038 0h2.314v-9.818h-2.314V56zm1.163-11.212c.735 0 1.336-.562 1.336-1.252 0-.697-.601-1.26-1.336-1.26-.741 0-1.342.563-1.342 1.26 0 .69.601 1.252 1.342 1.252zm8.433 1.394h-1.937V43.83h-2.314v2.352h-1.393v1.79h1.393v5.458c-.012 1.848 1.33 2.755 3.068 2.704a4.646 4.646 0 001.362-.23l-.39-1.809a2.89 2.89 0 01-.677.09c-.582 0-1.049-.205-1.049-1.138v-5.075h1.937v-1.79zm4.46 4.065c0-1.419.882-2.237 2.122-2.237 1.215 0 1.931.773 1.931 2.096V56h2.314v-6.251c0-2.372-1.343-3.695-3.382-3.695-1.508 0-2.467.684-2.921 1.796h-.115v-4.94h-2.263V56h2.314v-5.753zM235.619 56h5.299c2.998 0 4.468-1.528 4.468-3.567 0-1.981-1.406-3.145-2.799-3.215v-.128c1.278-.3 2.288-1.195 2.288-2.787 0-1.95-1.406-3.394-4.244-3.394h-5.012V56zm2.372-1.981v-3.836h2.614c1.464 0 2.372.895 2.372 2.065 0 1.042-.716 1.77-2.436 1.77h-2.55zm0-5.542v-3.612h2.397c1.393 0 2.116.735 2.116 1.745 0 1.15-.934 1.867-2.167 1.867h-2.346zm12.181 7.721c1.541 0 2.461-.722 2.883-1.547h.077V56h2.224v-6.571c0-2.595-2.115-3.375-3.988-3.375-2.065 0-3.65.92-4.162 2.71l2.161.307c.23-.671.882-1.246 2.014-1.246 1.073 0 1.661.55 1.661 1.514v.039c0 .665-.696.697-2.429.882-1.904.205-3.726.773-3.726 2.985 0 1.93 1.413 2.953 3.285 2.953zm.601-1.7c-.965 0-1.655-.441-1.655-1.291 0-.889.773-1.26 1.809-1.407.607-.083 1.821-.236 2.122-.479v1.157c0 1.093-.882 2.02-2.276 2.02zm11.18 5.388c2.653 0 4.609-1.214 4.609-3.726v-9.978h-2.282v1.623h-.128c-.352-.71-1.087-1.751-2.819-1.751-2.269 0-4.053 1.777-4.053 5.005 0 3.202 1.784 4.8 4.047 4.8 1.681 0 2.467-.9 2.825-1.623h.115v1.86c0 1.445-.959 2.039-2.276 2.039-1.393 0-2.007-.658-2.288-1.234l-2.084.505c.422 1.375 1.835 2.48 4.334 2.48zm.019-5.842c-1.528 0-2.333-1.189-2.333-2.998 0-1.783.793-3.094 2.333-3.094 1.489 0 2.308 1.234 2.308 3.094 0 1.873-.831 2.998-2.308 2.998z"
    />
    <rect width="170" height="36" x="73" y="86" fill="#171717" rx="5" />
    <path
      fill="#fff"
      d="M97.763 101.537h1.688c-.367-2.125-2.183-3.595-4.538-3.595-2.823 0-4.884 2.125-4.884 5.609 0 3.451 2.002 5.598 4.959 5.598 2.647 0 4.538-1.736 4.538-4.49v-1.241h-4.288v1.358h2.695c-.037 1.758-1.198 2.871-2.945 2.871-1.923 0-3.324-1.454-3.324-4.107 0-2.642 1.412-4.096 3.26-4.096 1.449 0 2.429.799 2.839 2.093zm7.251 7.628c1.784 0 3.047-.879 3.409-2.21l-1.507-.272c-.288.772-.981 1.166-1.886 1.166-1.364 0-2.28-.884-2.323-2.461h5.817v-.564c0-2.956-1.768-4.112-3.622-4.112-2.28 0-3.782 1.736-3.782 4.25 0 2.541 1.481 4.203 3.894 4.203zm-2.301-4.97c.064-1.161.905-2.168 2.2-2.168 1.236 0 2.045.917 2.051 2.168h-4.251zm11.398-3.377h-1.678v-1.96h-1.593v1.96h-1.198v1.279h1.198v4.831c-.005 1.486 1.129 2.205 2.386 2.179a3.077 3.077 0 001.034-.171l-.288-1.316c-.106.022-.303.07-.559.07-.517 0-.98-.171-.98-1.092v-4.501h1.678v-1.279zm9.257 8.347c1.785 0 3.047-.879 3.41-2.21l-1.508-.272c-.288.772-.98 1.166-1.886 1.166-1.363 0-2.279-.884-2.322-2.461h5.817v-.564c0-2.956-1.769-4.112-3.622-4.112-2.28 0-3.782 1.736-3.782 4.25 0 2.541 1.48 4.203 3.893 4.203zm-2.301-4.97c.064-1.161.906-2.168 2.2-2.168 1.236 0 2.046.917 2.051 2.168h-4.251zm9.96 4.986c1.353 0 2.115-.687 2.418-1.3h.064V109h1.556v-5.433c0-2.381-1.875-2.855-3.175-2.855-1.481 0-2.845.596-3.377 2.088l1.496.341c.235-.581.831-1.14 1.902-1.14 1.028 0 1.556.538 1.556 1.465v.037c0 .58-.597.57-2.067.74-1.55.181-3.138.586-3.138 2.445 0 1.609 1.21 2.493 2.765 2.493zm.346-1.278c-.9 0-1.55-.405-1.55-1.193 0-.853.756-1.156 1.678-1.279.517-.069 1.742-.208 1.971-.437v1.055c0 .969-.773 1.854-2.099 1.854zm5.813 1.097h1.593v-4.996c0-1.071.825-1.843 1.954-1.843.331 0 .704.058.831.095v-1.523a6.542 6.542 0 00-.676-.037c-.959 0-1.779.543-2.077 1.422h-.086v-1.3h-1.539V109zm7.349-10.91h-1.592V109h1.592V98.09zm3.15 13.978c1.316 0 2.146-.687 2.621-1.976l3.382-9.258-1.72-.016-2.073 6.35h-.085l-2.072-6.35h-1.704l2.993 8.289-.197.543c-.405 1.087-.975 1.177-1.848.937l-.384 1.305c.192.086.607.176 1.087.176zm13.855-2.887c1.353 0 2.114-.687 2.418-1.3h.064V109h1.555v-5.433c0-2.381-1.875-2.855-3.174-2.855-1.481 0-2.845.596-3.378 2.088l1.497.341c.235-.581.831-1.14 1.902-1.14 1.028 0 1.555.538 1.555 1.465v.037c0 .58-.596.57-2.067.74-1.55.181-3.137.586-3.137 2.445 0 1.609 1.209 2.493 2.765 2.493zm.346-1.278c-.9 0-1.55-.405-1.55-1.193 0-.853.756-1.156 1.678-1.279.516-.069 1.742-.208 1.971-.437v1.055c0 .969-.773 1.854-2.099 1.854zm9.259 1.262c1.934 0 3.185-1.161 3.361-2.754h-1.55c-.202.884-.89 1.406-1.8 1.406-1.348 0-2.216-1.123-2.216-2.908 0-1.752.884-2.855 2.216-2.855 1.012 0 1.63.639 1.8 1.406h1.55c-.17-1.651-1.518-2.748-3.377-2.748-2.306 0-3.798 1.736-3.798 4.234 0 2.467 1.438 4.219 3.814 4.219zm8.511 0c1.933 0 3.185-1.161 3.361-2.754h-1.55c-.203.884-.89 1.406-1.801 1.406-1.347 0-2.216-1.123-2.216-2.908 0-1.752.885-2.855 2.216-2.855 1.012 0 1.63.639 1.801 1.406h1.55c-.171-1.651-1.518-2.748-3.377-2.748-2.307 0-3.798 1.736-3.798 4.234 0 2.467 1.438 4.219 3.814 4.219zm8.59 0c1.785 0 3.047-.879 3.409-2.21l-1.507-.272c-.288.772-.98 1.166-1.886 1.166-1.363 0-2.279-.884-2.322-2.461h5.817v-.564c0-2.956-1.769-4.112-3.623-4.112-2.279 0-3.781 1.736-3.781 4.25 0 2.541 1.48 4.203 3.893 4.203zm-2.301-4.97c.064-1.161.906-2.168 2.2-2.168 1.236 0 2.046.917 2.051 2.168h-4.251zm13.71-1.379c-.33-1.273-1.327-2.104-3.095-2.104-1.848 0-3.159.974-3.159 2.423 0 1.162.703 1.934 2.237 2.275l1.385.303c.789.176 1.156.528 1.156 1.039 0 .634-.676 1.129-1.72 1.129-.954 0-1.566-.41-1.758-1.214l-1.539.234c.266 1.449 1.47 2.264 3.307 2.264 1.977 0 3.346-1.049 3.346-2.53 0-1.156-.735-1.87-2.238-2.216l-1.299-.298c-.901-.213-1.289-.517-1.284-1.071-.005-.628.676-1.076 1.582-1.076.991 0 1.449.549 1.635 1.097l1.444-.255zm8.042 0c-.33-1.273-1.327-2.104-3.095-2.104-1.848 0-3.159.974-3.159 2.423 0 1.162.703 1.934 2.237 2.275l1.385.303c.789.176 1.156.528 1.156 1.039 0 .634-.676 1.129-1.72 1.129-.954 0-1.566-.41-1.758-1.214l-1.539.234c.266 1.449 1.47 2.264 3.307 2.264 1.977 0 3.346-1.049 3.346-2.53 0-1.156-.735-1.87-2.238-2.216l-1.299-.298c-.901-.213-1.289-.517-1.284-1.071-.005-.628.676-1.076 1.582-1.076.991 0 1.449.549 1.635 1.097l1.444-.255zm12.677 6.381l4.97-4.97-4.97-4.97-.958.954 3.329 3.324h-8.363v1.385h8.363l-3.329 3.329.958.948z"
    />
    <path
      clip-path="url(#clip)"
      stroke-width="2"
      stroke="#1A56DB"
      stroke-linecap="round"
      stroke-linejoin="round"
      d="M188 66c-4.667 2.667-9.333 2.667-14 0s-9.333-2.667-14 0-9.333 2.667-14 0-9.333-2.667-14 0-9.333 2.667-14 0-9.333-2.667-14 0-9.333 2.667-14 0-9.333-2.667-14 0-9.333 2.667-14 0-9.333-2.667-14 0-9.333 2.667-14 0-9.333-2.667-14 0-9.333 2.667-14 0-9.333-2.667-14 0-9.333 2.667-14 0-9.333-2.667-14 0-9.333 2.667-14 0-9.333-2.667-14 0-9.333 2.667-14 0-9.333-2.667-14 0"
    >
      <animateTransform
        attributeName="transform"
        attributeType="XML"
        type="translate"
        from="0 0"
        to="140 0"
        dur="2s"
        repeatCount="indefinite"
      />
    </path>
    <defs>
      <clipPath id="clip">
        <rect width="140" height="8" x="48" y="62">
          <animateTransform
            attributeName="transform"
            attributeType="XML"
            type="translate"
            from="0 0"
            to="-140 0"
            dur="2s"
            repeatCount="indefinite"
          />
        </rect>
      </clipPath>
    </defs>
  </svg>
</svg>
